<?xml version="1.0" encoding="UTF-8"?>
<svg width="11px" height="11px" viewBox="0 0 11 11" version="1.1" xmlns="http://www.w3.org/2000/svg" xmlns:xlink="http://www.w3.org/1999/xlink">
    <!-- Generator: Sketch 50.2 (55047) - http://www.bohemiancoding.com/sketch -->
    <title>Language-2</title>
    <desc>Created with Sketch.</desc>
    <defs></defs>
    <g id="Settings" stroke="none" stroke-width="1" fill="none" fill-rule="evenodd">
        <g id="headerwdropdown" transform="translate(-1289.000000, -142.000000)" fill="#686868">
            <g id="Group-4" transform="translate(1289.000000, 140.000000)">
                <g id="Language-2" transform="translate(0.000000, 2.000000)">
                    <path d="M5.5,0 C2.46243388,0 0,2.46243388 0,5.5 C0,8.53756612 2.46243388,11 5.5,11 C8.53756612,11 11,8.53756612 11,5.5 C11,2.46243388 8.53756612,0 5.5,0 L5.5,0 Z M10.2375,5.25 L8.5,5.25 C8.425,3.6075 7.7275,1.9275 6.56,0.8725 C8.6250523,1.34799862 10.1253559,3.13388005 10.2375,5.25 L10.2375,5.25 Z M5,1.2775 L5,5.25 L3.25,5.25 C3.3225,3.6825 3.94,2.1525 5,1.2775 Z M5,6 L5,9.6825 C4.0125,8.8125 3.3925,7.4 3.25,6 L5,6 Z M5.75,9.7975 L5.75,6 L7.75,6 C7.585,7.4225 6.8475,8.9225 5.75,9.7975 Z M5.75,5.25 L5.75,1.17 C6.93,2.0425 7.6675,3.67 7.75,5.25 L5.75,5.25 Z M4.2875,0.9125 C3.1925,1.9525 2.5675,3.5875 2.5,5.25 L0.7625,5.25 C0.872505391,3.1927111 2.29618128,1.44088297 4.2875,0.9125 L4.2875,0.9125 Z M0.7875,6 L2.51,6 C2.65,7.53 3.3075,9.0875 4.3675,10.105 C2.42631655,9.62832089 0.991253031,7.98739171 0.7775,6 L0.7875,6 Z M6.5125,10.1425 C7.6538192,9.04579072 8.36352472,7.57581317 8.5125,6 L10.2625,6 C10.0324869,8.04667111 8.51738934,9.71589761 6.5025,10.1425 L6.5125,10.1425 Z" id="Shape"></path>
                </g>
            </g>
        </g>
    </g>
</svg>