<?xml version="1.0" encoding="UTF-8"?>
<svg width="1440px" height="1619px" viewBox="0 0 1440 1619" version="1.1" xmlns="http://www.w3.org/2000/svg" xmlns:xlink="http://www.w3.org/1999/xlink">
    <!-- Generator: Sketch 51.1 (57501) - http://www.bohemiancoding.com/sketch -->
    <title>background</title>
    <desc>Created with Sketch.</desc>
    <defs>
        <linearGradient x1="50%" y1="0%" x2="50%" y2="100%" id="linearGradient-1">
            <stop stop-color="#FF4B00" offset="0%"></stop>
            <stop stop-color="#F76B1C" offset="100%"></stop>
        </linearGradient>
        <rect id="path-2" x="0" y="0" width="1440" height="1619"></rect>
    </defs>
    <g id="Sign-Up-" stroke="none" stroke-width="1" fill="none" fill-rule="evenodd">
        <g id="Sign-Up">
            <g id="Banner" transform="translate(0.000000, -298.000000)">
                <g id="background" transform="translate(0.000000, 298.000000)">
                    <g id="Group">
                        <mask id="mask-3" fill="white">
                            <use xlink:href="#path-2"></use>
                        </mask>
                        <use id="Rectangle" fill="url(#linearGradient-1)" xlink:href="#path-2"></use>
                        <path d="M-60.1064803,1371.53726 C-60.1064803,1371.53726 88.7685983,1228.00129 215.515458,1370.83865 C342.262317,1513.676 478.975479,1367.03042 478.975479,1367.03042 C478.975479,1367.03042 697.249883,1063.48594 908.283577,1358.06402 C1119.31727,1652.64209 1255.74135,1346.35569 1255.74135,1346.35569 C1255.74135,1346.35569 1405.6282,1152.3568 1600.34965,1339.61645 C1795.07109,1526.8761 1610.84593,1337.18969 1610.84593,1337.18969 L1610.84593,1687.38493 L-76.5399917,1687.38493 L-60.1064803,1371.53726 Z" id="Path-2" fill="#FFFFFF" mask="url(#mask-3)"></path>
                        <path d="M1780.39207,1293.74409 C1780.39207,1293.74409 1614.17616,1109.84313 1472.66594,1292.84902 C1331.15572,1475.8549 1178.51833,1287.96985 1178.51833,1287.96985 C1178.51833,1287.96985 934.81952,899.06299 699.204813,1276.48192 C463.590106,1653.90086 311.275468,1261.481 311.275468,1261.481 C311.275468,1261.481 143.929932,1012.92599 -73.47249,1252.84655 C-290.874913,1492.76711 -85.1913651,1249.73734 -85.1913651,1249.73734 L-85.1913651,1698.41403 L1798.73974,1698.41403" id="Path-2-Copy" fill="#FFFFFF" opacity="0.100000001" mask="url(#mask-3)"></path>
                        <path d="M-386.219444,1207.92407 C-386.219444,1207.92407 -200.321208,990.034617 -42.054171,1206.86357 C116.212866,1423.69252 286.924685,1201.08263 286.924685,1201.08263 C286.924685,1201.08263 559.480892,740.298184 822.995723,1187.47152 C1086.51055,1634.64485 1256.86141,1169.69813 1256.86141,1169.69813 C1256.86141,1169.69813 1444.02303,875.205295 1687.16898,1159.46787 C1930.31494,1443.73044 1700.27554,1155.78402 1700.27554,1155.78402 L1700.27554,1687.38493 L-406.73974,1687.38493 L-386.219444,1207.92407 Z" id="Path-2-Copy-2" fill="#FFFFFF" opacity="0.100000001" mask="url(#mask-3)"></path>
                    </g>
                </g>
            </g>
        </g>
    </g>
</svg>