<?xml version="1.0" encoding="UTF-8"?>
<svg width="1440px" height="1024px" viewBox="0 0 1440 1024" version="1.1" xmlns="http://www.w3.org/2000/svg" xmlns:xlink="http://www.w3.org/1999/xlink">
    <!-- Generator: Sketch 51.1 (57501) - http://www.bohemiancoding.com/sketch -->
    <title>Banner</title>
    <desc>Created with Sketch.</desc>
    <defs>
        <linearGradient x1="50%" y1="0%" x2="50%" y2="100%" id="linearGradient-1">
            <stop stop-color="#FF4B00" offset="0%"></stop>
            <stop stop-color="#F76B1C" offset="100%"></stop>
        </linearGradient>
        <rect id="path-2" x="0" y="0" width="1440" height="1024"></rect>
    </defs>
    <g id="Landing-" stroke="none" stroke-width="1" fill="none" fill-rule="evenodd">
        <g id="Landing-Page">
            <g id="Banner" transform="translate(0.000000, -298.000000)">
                <g id="background" transform="translate(0.000000, 298.000000)">
                    <g id="Group">
                        <mask id="mask-3" fill="white">
                            <use xlink:href="#path-2"></use>
                        </mask>
                        <use id="Rectangle" fill="url(#linearGradient-1)" xlink:href="#path-2"></use>
                        <path d="M-60.1064803,867.482491 C-60.1064803,867.482491 88.7685983,776.697544 215.515458,867.040626 C342.262317,957.383708 478.975479,864.631964 478.975479,864.631964 C478.975479,864.631964 697.249883,672.643363 908.283577,858.960812 C1119.31727,1045.27826 1255.74135,851.555424 1255.74135,851.555424 C1255.74135,851.555424 1405.6282,728.853219 1600.34965,847.292923 C1795.07109,965.732628 1610.84593,845.758024 1610.84593,845.758024 L1610.84593,1067.25273 L-76.5399917,1067.25273 L-60.1064803,867.482491 Z" id="Path-2" fill="#FFFFFF" mask="url(#mask-3)"></path>
                        <path d="M1780.39207,818.279153 C1780.39207,818.279153 1614.17616,701.963783 1472.66594,817.713028 C1331.15572,933.462272 1178.51833,814.627006 1178.51833,814.627006 C1178.51833,814.627006 934.81952,568.647623 699.204813,807.36102 C463.590106,1046.07442 311.275468,797.873097 311.275468,797.873097 C311.275468,797.873097 143.929932,640.66474 -73.47249,792.411902 C-290.874913,944.159064 -85.1913651,790.445361 -85.1913651,790.445361 L-85.1913651,1074.22852 L1798.73974,1074.22852" id="Path-2-Copy" fill="#FFFFFF" opacity="0.100000001" mask="url(#mask-3)"></path>
                        <path d="M-386.219444,763.998919 C-386.219444,763.998919 -200.321208,626.186194 -42.054171,763.328163 C116.212866,900.470132 286.924685,759.671783 286.924685,759.671783 C286.924685,759.671783 559.480892,468.2306 822.995723,751.062901 C1086.51055,1033.8952 1260.5,751.062901 1260.5,751.062901 C1260.5,751.062901 1444.02303,553.557889 1687.16898,733.350894 C1930.31494,913.143899 1700.27554,731.020898 1700.27554,731.020898 L1700.27554,1067.25273 L-406.73974,1067.25273 L-386.219444,763.998919 Z" id="Path-2-Copy-2" fill="#FFFFFF" opacity="0.100000001" mask="url(#mask-3)"></path>
                    </g>
                </g>
                <g id="content-image" transform="translate(883.000000, 0.000000)" fill="#FFFFFF" opacity="0.100000001">
                    <circle id="Oval" cx="384" cy="384" r="384"></circle>
                </g>
            </g>
        </g>
    </g>
</svg>