<?xml version="1.0" encoding="UTF-8"?>
<svg width="54px" height="54px" viewBox="0 0 54 54" version="1.1" xmlns="http://www.w3.org/2000/svg" xmlns:xlink="http://www.w3.org/1999/xlink">
    <!-- Generator: Sketch 51.1 (57501) - http://www.bohemiancoding.com/sketch -->
    <title>Combined Shape</title>
    <desc>Created with Sketch.</desc>
    <defs></defs>
    <g id="Landing-" stroke="none" stroke-width="1" fill="none" fill-rule="evenodd">
        <g id="Landing-Page" transform="translate(-409.000000, -1712.000000)" fill="#FFFFFF">
            <g id="purchases" transform="translate(404.000000, 1707.000000)">
                <path d="M17.9002242,14.5294118 L56.5767604,14.5294118 C58.3712397,14.5294118 59.3850897,15.9044461 58.8628888,17.5331703 L51.1138484,41.7021238 C50.5819629,43.3610538 48.6809299,44.7058824 46.917752,44.7058824 L14.6831446,44.7058824 C12.8975901,44.7058824 11.4501121,43.2908832 11.4501121,41.5335064 L11.4501121,14.5260973 C11.4501121,12.7590387 10.0062053,11.3529412 8.22505604,11.3529412 C6.43148893,11.3529412 5,9.93078685 5,8.17647059 C5,6.40992355 6.45743458,5 8.25527125,5 L11.4501121,5 C15.0372463,5 17.9002242,7.8512509 17.9002242,11.3684471 L17.9002242,14.5294118 L17.9002242,14.5294118 Z M16.2876961,59 C18.95942,59 21.1252802,56.8667685 21.1252802,54.2352941 C21.1252802,51.6038197 18.95942,49.4705882 16.2876961,49.4705882 C13.6159722,49.4705882 11.4501121,51.6038197 11.4501121,54.2352941 C11.4501121,56.8667685 13.6159722,59 16.2876961,59 Z M38.8630884,59 C41.5348123,59 43.7006725,56.8667685 43.7006725,54.2352941 C43.7006725,51.6038197 41.5348123,49.4705882 38.8630884,49.4705882 C36.1913645,49.4705882 34.0255043,51.6038197 34.0255043,54.2352941 C34.0255043,56.8667685 36.1913645,59 38.8630884,59 Z" id="Combined-Shape"></path>
            </g>
        </g>
    </g>
</svg>