<?xml version="1.0" encoding="UTF-8"?>
<svg width="54px" height="54px" viewBox="0 0 54 54" version="1.1" xmlns="http://www.w3.org/2000/svg" xmlns:xlink="http://www.w3.org/1999/xlink">
    <!-- Generator: Sketch 49.3 (51167) - http://www.bohemiancoding.com/sketch -->
    <title>Group 2</title>
    <desc>Created with Sketch.</desc>
    <defs></defs>
    <g id="Symbols" stroke="none" stroke-width="1" fill="none" fill-rule="evenodd">
        <g id="CreateDone" transform="translate(-29.000000, -29.000000)">
            <g id="Group">
                <g id="Group-2" transform="translate(30.000000, 30.000000)">
                    <circle id="Oval" stroke="#FF4B00" fill="#FF4B00" cx="26" cy="26" r="26"></circle>
                    <path d="M16.3414898,26.6640811 C15.8690362,27.1706859 15.8952836,28.1838955 16.3677372,28.6771686 L22.1290466,34.6097774 C22.6146239,35.1163822 23.5857786,35.1297139 24.0844796,34.6497725 L25.0031395,33.7565483 L26.9848199,31.823451 L36.6176243,22.4912574 C37.1163253,22.011316 37.129449,21.0247698 36.6438717,20.5314968 L35.5283562,19.3716384 C35.0427789,18.8783653 34.0716242,18.8783653 33.5860469,19.3583067 L24.1632219,28.9171393 C23.6776446,29.4104124 22.7064899,29.3970807 22.2340363,28.9038076 L19.0974692,25.6908666 C18.6250156,25.1842618 17.6801084,25.1975936 17.2076547,25.7175301 L16.3414898,26.6640811 L16.3414898,26.6640811 Z" id="Shape" fill="#FFFFFF"></path>
                </g>
            </g>
        </g>
    </g>
</svg>