<?xml version="1.0" encoding="UTF-8"?>
<svg width="57px" height="57px" viewBox="0 0 57 57" version="1.1" xmlns="http://www.w3.org/2000/svg" xmlns:xlink="http://www.w3.org/1999/xlink">
    <!-- Generator: Sketch 51.1 (57501) - http://www.bohemiancoding.com/sketch -->
    <title>internet copy</title>
    <desc>Created with Sketch.</desc>
    <defs></defs>
    <g id="Landing-" stroke="none" stroke-width="1" fill="none" fill-rule="evenodd">
        <g id="Landing-Page" transform="translate(-692.000000, -1711.000000)" fill="#FFFFFF" fill-rule="nonzero">
            <g id="internet" transform="translate(692.000000, 1711.000000)">
                <path d="M29,8.77777778 C17.8315751,8.77777778 8.77777778,17.8315751 8.77777778,29 C8.77777778,40.1684249 17.8315751,49.2222222 29,49.2222222 C40.1684249,49.2222222 49.2222222,40.1684249 49.2222222,29 C49.2222222,17.8315751 40.1684249,8.77777778 29,8.77777778 Z M29,3 C43.3594035,3 55,14.6405965 55,29 C55,43.3594035 43.3594035,55 29,55 C14.6405965,55 3,43.3594035 3,29 C3,14.6405965 14.6405965,3 29,3 Z" id="Shape"></path>
                <path d="M28,7.54565336 C28.1551451,7.6476634 28.5173075,7.93681729 29.020959,8.43355392 C29.9113509,9.31172132 30.8143561,10.439824 31.6665322,11.8406178 C34.1639567,15.9458449 35.6793348,21.4259453 35.6793348,28.5 C35.6793348,35.5740547 34.1639567,41.0541551 31.6665322,45.1593822 C30.8143561,46.560176 29.9113509,47.6882787 29.020959,48.5664461 C28.5173075,49.0631827 28.1551451,49.3523366 28,49.4543466 L30.3966739,53 C31.7301028,52.1232521 33.5767557,50.3019528 35.3714721,47.3518261 C38.2748792,42.5792511 40,36.3406528 40,28.5 C40,20.6593472 38.2748792,14.4207489 35.3714721,9.64817389 C33.5767557,6.69804719 31.7301028,4.87674786 30.3966739,4 L28,7.54565336 Z" id="Path-33"></path>
                <path d="M27.2759001,4 C26.0279888,5.04724602 24.2662477,7.06779634 22.5355046,10.117916 C19.6966649,15.1208543 18,21.2433645 18,28.5 C18,35.7566355 19.6966649,41.8791457 22.5355046,46.882084 C24.2662477,49.9322037 26.0279888,51.952754 27.2759001,53 L30,49.7080707 C29.8161437,49.5537787 29.4299151,49.1787224 28.906963,48.5789459 C28.0013053,47.5402422 27.0876586,46.2674679 26.2300355,44.7560633 C23.7499001,40.3852762 22.25518,34.9914951 22.25518,28.5 C22.25518,22.0085049 23.7499001,16.6147238 26.2300355,12.2439367 C27.0876586,10.7325321 28.0013053,9.45975781 28.906963,8.42105412 C29.4299151,7.82127757 29.8161437,7.4462213 30,7.2919293 L27.2759001,4 Z" id="Path-33"></path>
                <polygon id="Path-34" points="5 24 50 24 50 20 5 20"></polygon>
                <polygon id="Path-34" points="5 38 50 38 50 34 5 34"></polygon>
            </g>
        </g>
    </g>
</svg>