<?xml version="1.0" encoding="UTF-8"?>
<svg width="10px" height="12px" viewBox="0 0 10 12" version="1.1" xmlns="http://www.w3.org/2000/svg" xmlns:xlink="http://www.w3.org/1999/xlink">
    <!-- Generator: Sketch 50.2 (55047) - http://www.bohemiancoding.com/sketch -->
    <title>Link</title>
    <desc>Created with Sketch.</desc>
    <defs></defs>
    <g id="Settings" stroke="none" stroke-width="1" fill="none" fill-rule="evenodd">
        <g id="headerwdropdown" transform="translate(-1289.000000, -118.000000)" fill="#686868">
            <g id="Group-3" transform="translate(1289.000000, 117.000000)">
                <g id="Link" transform="translate(0.000000, 1.000000)">
                    <path d="M9.27647059,7.63235294 L8.03823529,6.39411765 C7.86440603,6.23214185 7.59352369,6.23692125 7.42551659,6.40492835 C7.25750948,6.57293546 7.25273008,6.84381779 7.41470588,7.01764706 L8.65294118,8.25588235 C9.0417302,8.64467138 9.1935696,9.21134373 9.05126294,9.74243941 C8.90895628,10.2735351 8.49412333,10.688368 7.96302765,10.8306747 C7.43193196,10.9729814 6.86525961,10.821142 6.47647059,10.4323529 L4.14117647,8.09705882 C3.7308622,7.68733953 3.58581436,7.08169778 3.76600753,6.53055522 C3.9462007,5.97941266 4.42101273,5.57643084 4.99411765,5.48823529 C5.15173484,5.46406735 5.28448569,5.35764747 5.34236422,5.209063 C5.40024274,5.06047853 5.37445583,4.89230299 5.27471715,4.76788648 C5.17497847,4.64346998 5.01644072,4.58171436 4.85882353,4.60588235 C3.95187716,4.74160613 3.19950445,5.37819787 2.91549515,6.25015624 C2.63148586,7.1221146 2.86461304,8.07969773 3.51764706,8.72352941 L5.85294118,11.0588235 C6.4644958,11.6703782 7.3558561,11.9092175 8.19125529,11.685373 C9.02665447,11.4615284 9.67917551,10.8090074 9.90302003,9.97360823 C10.1268646,9.13820905 9.88802526,8.24684874 9.27647059,7.63529412 L9.27647059,7.63235294 Z" id="Shape"></path>
                    <path d="M1.39705882,3.77352941 C1.0082698,3.38474039 0.856430401,2.81806804 0.998737061,2.28697235 C1.14104372,1.75587667 1.55587667,1.34104372 2.08697235,1.19873706 C2.61806804,1.0564304 3.18474039,1.2082698 3.57352941,1.59705882 L5.90882353,3.93235294 C6.3191378,4.34207224 6.46418564,4.94771399 6.28399247,5.49885655 C6.1037993,6.04999911 5.62898727,6.45298092 5.05588235,6.54117647 C4.81222735,6.55985673 4.62984927,6.77252146 4.64852949,7.01617646 C4.66720971,7.25983147 4.8798744,7.44220959 5.12352941,7.42352941 L5.19117647,7.42352941 C6.09812284,7.28780563 6.85049555,6.65121389 7.13450485,5.77925553 C7.41851414,4.90729717 7.18538696,3.94971403 6.53235294,3.30588235 L4.19705882,0.970588235 C3.5855042,0.359033608 2.69414391,0.120194338 1.85874475,0.344038868 C1.02334559,0.567883397 0.370824574,1.22040442 0.146980044,2.05580357 C-0.0768644853,2.89120273 0.161974784,3.78256302 0.773529412,4.39411765 L2.01176471,5.63235294 C2.1217474,5.75038422 2.28738561,5.79897011 2.44369936,5.75905032 C2.6000131,5.71913053 2.72207171,5.59707193 2.7619915,5.44075818 C2.80191128,5.28444444 2.7533254,5.11880622 2.63529412,5.00882353 L1.39705882,3.77352941 Z" id="Shape"></path>
                </g>
            </g>
        </g>
    </g>
</svg>