<?xml version="1.0" encoding="UTF-8"?>
<svg width="11px" height="13px" viewBox="0 0 11 13" version="1.1" xmlns="http://www.w3.org/2000/svg" xmlns:xlink="http://www.w3.org/1999/xlink">
    <!-- Generator: Sketch 50.2 (55047) - http://www.bohemiancoding.com/sketch -->
    <title>Share-3</title>
    <desc>Created with Sketch.</desc>
    <defs></defs>
    <g id="Settings" stroke="none" stroke-width="1" fill="none" fill-rule="evenodd">
        <g id="headerwdropdown" transform="translate(-1289.000000, -187.000000)" fill="#686868">
            <g id="Group-6" transform="translate(1289.000000, 186.000000)">
                <g id="Share-3" transform="translate(0.000000, 1.000000)">
                    <path d="M10.4847368,12.5631579 L0.642631579,12.5631579 C0.402823727,12.5631579 0.208421053,12.3687552 0.208421053,12.1289474 L0.208421053,5.18157895 C0.208421053,4.9417711 0.402823727,4.74736842 0.642631579,4.74736842 L2.81368421,4.74736842 C3.05349206,4.74736842 3.24789474,4.9417711 3.24789474,5.18157895 C3.24789474,5.4213868 3.05349206,5.61578947 2.81368421,5.61578947 L1.07684211,5.61578947 L1.07684211,11.6947368 L10.0505263,11.6947368 L10.0505263,5.61578947 L8.02421053,5.61578947 C7.78440267,5.61578947 7.59,5.4213868 7.59,5.18157895 C7.59,4.9417711 7.78440267,4.74736842 8.02421053,4.74736842 L10.4847368,4.74736842 C10.7245447,4.74736842 10.9189474,4.9417711 10.9189474,5.18157895 L10.9189474,12.1289474 C10.9189474,12.3687552 10.7245447,12.5631579 10.4847368,12.5631579 L10.4847368,12.5631579 Z" id="Shape"></path>
                    <path d="M5.56368421,9.23421053 C5.32387636,9.23421053 5.12947368,9.03980785 5.12947368,8.8 L5.12947368,1.91631579 L4.01789474,3.28263158 C3.86681577,3.46888226 3.59335607,3.4973946 3.40710534,3.34631569 C3.22085462,3.19523677 3.19234219,2.92177709 3.34342105,2.73552632 L5.26552632,0.376315789 C5.35863727,0.329753431 5.45546285,0.291023197 5.555,0.260526316 L5.555,0.260526316 C5.67241455,0.303579467 5.78496576,0.358884802 5.89078947,0.425526316 L7.77236842,2.74131579 C7.84476313,2.83028056 7.87874112,2.94441671 7.8667905,3.05849083 C7.85483987,3.17256496 7.79794498,3.27718109 7.70868421,3.34921053 C7.61924595,3.4217674 7.5046462,3.45582031 7.39009901,3.443877 C7.27555181,3.43193369 7.17044167,3.37497264 7.09789474,3.28552632 L5.98631579,1.91921053 L5.98631579,8.8 C5.98639949,9.03535782 5.79895834,9.22793433 5.56368421,9.23421053 Z" id="Shape"></path>
                </g>
            </g>
        </g>
    </g>
</svg>