<svg version="1.1" xmlns="http://www.w3.org/2000/svg" xmlns:xlink="http://www.w3.org/1999/xlink" x="0px" y="0px" viewBox="0 0 48 48" xml:space="preserve" width="48" height="48"><title>offer</title><g class="nc-icon-wrapper" stroke-linecap="square" stroke-linejoin="miter" stroke-width="2" fill="#ffffff" stroke="#ffffff"><path data-cap="butt" fill="none" stroke="#ffffff" stroke-miterlimit="10" d="M10,11V7c0-1.657,1.343-3,3-3h0 c1.657,0,3,1.343,3,3v4" stroke-linecap="butt"/> <path data-cap="butt" fill="none" stroke="#ffffff" stroke-miterlimit="10" d="M16,11V6c0-1.657,1.343-3,3-3h0 c1.657,0,3,1.343,3,3v5" stroke-linecap="butt"/> <path data-cap="butt" fill="none" stroke="#ffffff" stroke-miterlimit="10" d="M28,11V6c0-1.657,1.343-3,3-3h0 c1.657,0,3,1.343,3,3v5" stroke-linecap="butt"/> <path data-cap="butt" fill="none" stroke="#ffffff" stroke-miterlimit="10" d="M22,11V5c0-1.657,1.343-3,3-3h0 c1.657,0,3,1.343,3,3v6" stroke-linecap="butt"/> <polyline data-cap="butt" fill="none" stroke="#ffffff" stroke-miterlimit="10" points="27.081,31 3,31 3,11 45,11 45,31 40,31 " stroke-linecap="butt"/> <circle data-color="color-2" fill="none" stroke-miterlimit="10" cx="23" cy="21" r="4"/> <line data-color="color-2" fill="none" stroke-miterlimit="10" x1="13" y1="17" x2="9" y2="17"/> <path data-cap="butt" fill="none" stroke="#ffffff" stroke-miterlimit="10" d="M10,31c0,8.284,6.716,15,15,15 s15-6.716,15-15V18c-3.464,0-6,2.536-6,6v4c-4.728,0-9,3.656-9,8" stroke-linecap="butt"/></g></svg>