<?xml version="1.0" encoding="UTF-8"?>
<svg width="13px" height="11px" viewBox="0 0 13 11" version="1.1" xmlns="http://www.w3.org/2000/svg" xmlns:xlink="http://www.w3.org/1999/xlink">
    <!-- Generator: Sketch 50.2 (55047) - http://www.bohemiancoding.com/sketch -->
    <title>Money_box</title>
    <desc>Created with Sketch.</desc>
    <defs></defs>
    <g id="Settings" stroke="none" stroke-width="1" fill="none" fill-rule="evenodd">
        <g id="headerwdropdown" transform="translate(-1289.000000, -165.000000)" fill="#686868">
            <g id="Group-5" transform="translate(1289.000000, 163.000000)">
                <g id="Money_box" transform="translate(0.000000, 2.000000)">
                    <circle id="Oval" cx="10.5" cy="4.5" r="1"></circle>
                    <path d="M11.9020957,3.77793807 C11.4666299,2.74251701 10.5825023,1.99701384 9.35528034,1.56990265 L9.68253952,0.498241851 C9.72643327,0.352434219 9.67952862,0.194914498 9.56252472,0.0951966261 C9.44552082,-0.00452124593 9.27994524,-0.0280901575 9.13886701,0.0348909246 L6.58941241,1.17644265 C3.5781001,1.24892212 1.47994648,2.86159043 1.3954925,5.16799085 C0.994336079,5.05668309 0.820149741,4.92207835 0.796397058,4.83665611 C0.772644375,4.75123387 0.849180797,4.55968098 1.13949136,4.27494018 C1.28483606,4.12195167 1.28054739,3.88354599 1.12979066,3.73568161 C0.979033927,3.58781723 0.735964826,3.58361084 0.579983728,3.72616702 C0.10229089,4.19469505 -0.0824521962,4.63733756 0.0336720296,5.04374033 C0.149796255,5.45014309 0.577344541,5.77112362 1.2925642,5.94455665 C1.32499433,5.94843114 1.357784,5.94843114 1.39021412,5.94455665 C1.40866415,5.9458705 1.42718702,5.9458705 1.44563705,5.94455665 C1.63301932,7.00068614 2.27698094,7.71771522 2.9710871,8.27425405 L2.9710871,9.63324419 C2.96735564,10.3617055 3.54886796,10.9640011 4.29068058,11 L5.08243666,11 C5.66940734,10.9829793 6.17856703,10.597466 6.34396803,10.0448241 L6.79790818,10.0448241 C6.94834184,10.0448241 7.10141468,10.068121 7.25184834,10.0448241 C7.41886782,10.5948298 7.92842547,10.9764621 8.5133797,10.9896458 L9.30513578,10.9896458 C10.0469484,10.9536469 10.6284607,10.3513513 10.6247293,9.62288998 L10.6247293,8.27425405 C11.0853255,7.97015674 11.4733698,7.57189611 11.7622188,7.1068168 C12.4588779,7.06437223 13.0013403,6.49714949 12.9999975,5.81254047 L12.9999975,5.03597467 C12.9912129,4.41182344 12.5294814,3.882746 11.9020957,3.77793807 Z M12.2082414,5.83066033 C12.2082414,6.11658397 11.9719206,6.34837087 11.680404,6.34837087 L11.2449382,6.34837087 C11.002133,7.08869693 10.5006875,7.40967746 9.83297317,7.90150246 L9.83297317,9.64100985 C9.83771516,9.94151738 9.60952791,10.19666 9.30513578,10.2311999 L8.5133797,10.2311999 C8.20898757,10.19666 7.98080032,9.94151738 7.98554231,9.64100985 L7.98554231,9.12329932 C7.20406886,9.30029583 6.39174751,9.30029583 5.61027405,9.12329932 L5.61027405,9.64100985 C5.61501604,9.94151738 5.38682879,10.19666 5.08243666,10.2311999 L4.29068058,10.2311999 C3.98628845,10.19666 3.7581012,9.94151738 3.76284319,9.64100985 L3.76284319,7.90150246 C2.79426158,7.18965048 2.17933102,6.4777985 2.17933102,5.3129498 C2.17933102,3.35600399 3.9027201,2.17303542 6.13811144,1.97889397 C6.25520806,2.08145065 6.42327658,2.10587199 6.56565973,2.04101924 L6.7741555,1.94783134 L6.82430005,1.94783134 L6.80318656,1.94783134 L8.6743701,1.10914028 L8.14653271,2.88488741 C8.09642765,3.08569269 8.21552369,3.28979192 8.41742911,3.34913245 C8.61933453,3.40847297 8.83323996,3.30224373 8.90397937,3.10750293 L9.14150619,2.33093714 C10.2526039,2.72957425 11.0707519,3.45695754 11.3346705,4.55450387 L11.6909608,4.55450387 C11.9824773,4.55450387 12.2187982,4.78629077 12.2187982,5.0722144 L12.2082414,5.83066033 Z" id="Shape"></path>
                </g>
            </g>
        </g>
    </g>
</svg>