<?xml version="1.0" encoding="UTF-8"?>
<svg width="42px" height="42px" viewBox="0 0 42 42" version="1.1" xmlns="http://www.w3.org/2000/svg" xmlns:xlink="http://www.w3.org/1999/xlink">
    <!-- Generator: Sketch 51.1 (57501) - http://www.bohemiancoding.com/sketch -->
    <title>Combined Shape</title>
    <desc>Created with Sketch.</desc>
    <defs></defs>
    <g id="Landing-" stroke="none" stroke-width="1" fill="none" fill-rule="evenodd">
        <g id="Landing-Page" transform="translate(-994.000000, -1723.000000)" fill="#FFFFFF" fill-rule="nonzero">
            <g id="Service" transform="translate(0.000000, 1487.000000)">
                <g id="service-1-copy" transform="translate(324.000000, 228.000000)">
                    <g id="Group-3">
                        <g id="service-1-copy-3" transform="translate(580.000000, 0.000000)">
                            <g id="taxes" transform="translate(82.000000, 0.000000)">
                                <path d="M43.4883606,11.7740749 C44.5204606,10.741975 46.1938252,10.741975 47.2259251,11.7740749 C48.258025,12.8061748 48.258025,14.4795394 47.2259251,15.5116394 L15.5116394,47.2259251 C14.4795394,48.258025 12.8061748,48.258025 11.7740749,47.2259251 C10.741975,46.1938252 10.741975,44.5204606 11.7740749,43.4883606 L43.4883606,11.7740749 Z M41,50 C36.0294373,50 32,45.9705627 32,41 C32,36.0294373 36.0294373,32 41,32 C45.9705627,32 50,36.0294373 50,41 C50,45.9705627 45.9705627,50 41,50 Z M41,45 C43.209139,45 45,43.209139 45,41 C45,38.790861 43.209139,37 41,37 C38.790861,37 37,38.790861 37,41 C37,43.209139 38.790861,45 41,45 Z M17,26 C12.0294373,26 8,21.9705627 8,17 C8,12.0294373 12.0294373,8 17,8 C21.9705627,8 26,12.0294373 26,17 C26,21.9705627 21.9705627,26 17,26 Z M17,21 C19.209139,21 21,19.209139 21,17 C21,14.790861 19.209139,13 17,13 C14.790861,13 13,14.790861 13,17 C13,19.209139 14.790861,21 17,21 Z" id="Combined-Shape"></path>
                            </g>
                        </g>
                    </g>
                </g>
            </g>
        </g>
    </g>
</svg>