<?xml version="1.0" encoding="UTF-8"?>
<svg width="12px" height="11px" viewBox="0 0 12 11" version="1.1" xmlns="http://www.w3.org/2000/svg" xmlns:xlink="http://www.w3.org/1999/xlink">
    <!-- Generator: Sketch 50.2 (55047) - http://www.bohemiancoding.com/sketch -->
    <title>User</title>
    <desc>Created with Sketch.</desc>
    <defs></defs>
    <g id="Settings" stroke="none" stroke-width="1" fill="none" fill-rule="evenodd">
        <g id="headerwdropdown" transform="translate(-1289.000000, -73.000000)" fill="#686868">
            <g id="Group" transform="translate(1289.000000, 71.000000)">
                <g id="User" transform="translate(0.000000, 2.000000)">
                    <path d="M6,7 C7.653,7 9,5.43083333 9,3.5 C9,1.56916667 7.653,0 6,0 C4.347,0 3,1.56916667 3,3.5 C3,5.43083333 4.35,7 6,7 Z M6,0.875 C7.161,0.875 8.1,2.04166667 8.1,3.5 C8.1,4.95833333 7.161,6.125 6,6.125 C4.839,6.125 3.9,4.95833333 3.9,3.5 C3.9,2.04166667 4.839,0.875 6,0.875 Z" id="Shape"></path>
                    <path d="M8.67804878,7.00202542 C8.43558232,6.9799305 8.21936864,7.14113385 8.19512199,7.36208317 C8.17087535,7.5830325 8.34777745,7.7800588 8.5902439,7.80215375 C9.95181122,7.94794826 11.006674,8.95625386 11.1014634,10.2025388 L0.898536585,10.2025388 C1.00228624,8.95987118 2.05258173,7.95593125 3.4097561,7.80215375 C3.65222257,7.78005882 3.8291247,7.58303251 3.80487805,7.36208317 C3.7806314,7.14113383 3.5644177,6.97993048 3.32195122,7.00202542 C3.2897561,7.00202542 0,7.34341351 0,10.5999358 C0,10.8208852 0.196557915,11 0.43902439,11 L11.5609756,11 C11.8034421,11 12,10.8208852 12,10.5999358 C12,7.34341351 8.7102439,7.00202542 8.67804878,7.00202542 Z" id="Shape"></path>
                </g>
            </g>
        </g>
    </g>
</svg>