<svg version="1.1" xmlns="http://www.w3.org/2000/svg" xmlns:xlink="http://www.w3.org/1999/xlink" x="0px" y="0px" viewBox="0 0 64 64" xml:space="preserve" width="64" height="64"><title>bold remove</title><g class="nc-icon-wrapper" fill="#e56666"><path fill="#e56666" d="M56.7,15.3l-8-8c-0.4-0.4-1-0.4-1.4,0L32,22.6L16.7,7.3c-0.4-0.4-1-0.4-1.4,0l-8,8c-0.4,0.4-0.4,1,0,1.4 L22.6,32L7.3,47.3c-0.4,0.4-0.4,1,0,1.4l8,8c0.4,0.4,1,0.4,1.4,0L32,41.4l15.3,15.3c0.2,0.2,0.5,0.3,0.7,0.3s0.5-0.1,0.7-0.3l8-8 c0.4-0.4,0.4-1,0-1.4L41.4,32l15.3-15.3C57.1,16.3,57.1,15.7,56.7,15.3z"/></g></svg>