<?xml version="1.0" encoding="UTF-8"?>
<svg width="12px" height="12px" viewBox="0 0 12 12" version="1.1" xmlns="http://www.w3.org/2000/svg" xmlns:xlink="http://www.w3.org/1999/xlink">
    <!-- Generator: Sketch 50.2 (55047) - http://www.bohemiancoding.com/sketch -->
    <title>Settings-2</title>
    <desc>Created with Sketch.</desc>
    <defs></defs>
    <g id="Settings" stroke="none" stroke-width="1" fill="none" fill-rule="evenodd">
        <g id="headerwdropdown" transform="translate(-1289.000000, -96.000000)" fill="#686868">
            <g id="Group-2" transform="translate(1289.000000, 94.000000)">
                <g id="Settings-2" transform="translate(0.000000, 2.000000)">
                    <path d="M6,4 C4.8954305,4 4,4.8954305 4,6 C4,7.1045695 4.8954305,8 6,8 C7.1045695,8 8,7.1045695 8,6 C8,4.8954305 7.1045695,4 6,4 Z M6,7.25 C5.30964406,7.25 4.75,6.69035594 4.75,6 C4.75,5.30964406 5.30964406,4.75 6,4.75 C6.69035594,4.75 7.25,5.30964406 7.25,6 C7.25,6.69035594 6.69035594,7.25 6,7.25 L6,7.25 Z" id="Shape"></path>
                    <path d="M11.1771117,4.36363636 L10.3324251,4.36363636 C10.297911,4.27090909 10.2597639,4.18 10.2179837,4.09090909 L10.8147139,3.49363636 C11.1334642,3.17419904 11.1334642,2.65671005 10.8147139,2.33727273 L9.65940054,1.18090909 C9.34025336,0.861869042 8.82323438,0.861869042 8.50408719,1.18090909 L7.90735695,1.77818182 C7.81834696,1.73818182 7.72752044,1.7 7.63487738,1.66363636 L7.63487738,0.818181818 C7.63487738,0.366312477 7.26889762,0 6.81743869,0 L5.18256131,0 C4.73110238,0 4.36512262,0.366312477 4.36512262,0.818181818 L4.36512262,1.66363636 C4.27247956,1.69818182 4.18165304,1.73636364 4.09264305,1.77818182 L3.49591281,1.18090909 C3.17676562,0.861869042 2.65974664,0.861869042 2.34059946,1.18090909 L1.1852861,2.33727273 C0.866535828,2.65671005 0.866535828,3.17419904 1.1852861,3.49363636 L1.77656676,4.09090909 C1.73660309,4.18 1.69845595,4.27090909 1.66212534,4.36363636 L0.817438692,4.36363636 C0.365979769,4.36363636 0,4.72994884 0,5.18181818 L0,6.81818182 C0,7.27005116 0.365979769,7.63636364 0.817438692,7.63636364 L1.66212534,7.63636364 C1.69663942,7.72909091 1.73478656,7.82 1.77656676,7.90909091 L1.17983651,8.50636364 C0.861086236,8.82580096 0.861086236,9.34328995 1.17983651,9.66272727 L2.33514986,10.8190909 C2.65429705,11.138131 3.17131603,11.138131 3.49046322,10.8190909 L4.08719346,10.2218182 C4.17620345,10.2618182 4.26702997,10.3 4.35967302,10.3363636 L4.35967302,11.1818182 C4.35967302,11.6336875 4.72565279,12 5.17711172,12 L6.8119891,12 C7.26344802,12 7.62942779,11.6336875 7.62942779,11.1818182 L7.62942779,10.3363636 C7.72207084,10.3018182 7.81289737,10.2636364 7.90190736,10.2218182 L8.4986376,10.8190909 C8.81778479,11.138131 9.33480376,11.138131 9.65395095,10.8190909 L10.8092643,9.66272727 C11.1280146,9.34328995 11.1280146,8.82580096 10.8092643,8.50636364 L10.2234332,7.90909091 C10.2633969,7.82 10.3015441,7.72909091 10.3378747,7.63636364 L11.1825613,7.63636364 C11.6340202,7.63636364 12,7.27005116 12,6.81818182 L12,5.18181818 C12.0000048,4.9638745 11.9131344,4.75493584 11.7586543,4.60133923 C11.6041741,4.44774261 11.3948526,4.36218341 11.1771117,4.36363636 Z M11.1771117,6.81818182 L9.72479564,6.81818182 C9.62802085,7.25826421 9.45363004,7.67755207 9.20980926,8.05636364 L10.2370572,9.08454545 L9.08174387,10.2409091 L8.04359673,9.21272727 C7.66512922,9.4567697 7.24622219,9.63131905 6.80653951,9.72818182 L6.80653951,11.1818182 L5.17166213,11.1818182 L5.17166213,9.72818182 C4.73197944,9.63131905 4.31307241,9.4567697 3.9346049,9.21272727 L2.90735695,10.2409091 L1.7520436,9.08454545 L2.77929155,8.05636364 C2.53547078,7.67755207 2.36107997,7.25826421 2.26430518,6.81818182 L0.822888283,6.81818182 L0.822888283,5.18181818 L2.27520436,5.18181818 C2.37197915,4.74173579 2.54636996,4.32244793 2.79019074,3.94363636 L1.76294278,2.91545455 L2.91825613,1.75909091 L3.94550409,2.78727273 C4.32397159,2.5432303 4.74287862,2.36868095 5.18256131,2.27181818 L5.18256131,0.818181818 L6.81743869,0.818181818 L6.81743869,2.27181818 C7.25712138,2.36868095 7.67602841,2.5432303 8.05449591,2.78727273 L9.08174387,1.75909091 L10.2370572,2.91545455 L9.20980926,3.94363636 C9.45363004,4.32244793 9.62802085,4.74173579 9.72479564,5.18181818 L11.1771117,5.18181818 L11.1771117,6.81818182 Z" id="Shape"></path>
                </g>
            </g>
        </g>
    </g>
</svg>