<?xml version="1.0" encoding="UTF-8"?>
<svg width="43px" height="43px" viewBox="0 0 43 43" version="1.1" xmlns="http://www.w3.org/2000/svg" xmlns:xlink="http://www.w3.org/1999/xlink">
    <!-- Generator: Sketch 49.3 (51167) - http://www.bohemiancoding.com/sketch -->
    <title>Group 19</title>
    <desc>Created with Sketch.</desc>
    <defs></defs>
    <g id="Creator-Profile" stroke="none" stroke-width="1" fill="none" fill-rule="evenodd">
        <g id="Profile-Before-Setup-Copy-3" transform="translate(-964.000000, -436.000000)" fill="#3E3E3E">
            <g id="Group-21" transform="translate(964.000000, 277.000000)">
                <g id="Group-12" transform="translate(0.000000, 159.000000)">
                    <g id="Group-19">
                        <path d="M27.52,13.889 L25.4936334,13.8903437 C23.9045637,13.8903437 23.5964376,14.6441875 23.5964376,15.7500937 L23.5964376,18.1903437 L27.3867926,18.1903437 L26.8929835,22.0133125 L23.5964376,22.0133125 L23.5964376,31.82 L19.6446191,31.82 L19.6446191,22.0133125 L16.34,22.0133125 L16.34,18.1903437 L19.6446191,18.1903437 L19.6446191,15.3725 C19.6446191,12.1004687 21.6454206,10.32 24.566564,10.32 C25.9659141,10.32 27.1688169,10.4234687 27.52,10.4705 L27.52,13.889 Z M21.5,0 C9.626625,0 0,9.62528125 0,21.5 C0,33.373375 9.626625,43 21.5,43 C33.3747188,43 43,33.373375 43,21.5 C43,9.62528125 33.3747188,0 21.5,0 L21.5,0 Z" id="Fill-183-Copy-3"></path>
                    </g>
                </g>
            </g>
        </g>
    </g>
</svg>