<?xml version="1.0" encoding="UTF-8"?>
<svg width="43px" height="43px" viewBox="0 0 43 43" version="1.1" xmlns="http://www.w3.org/2000/svg" xmlns:xlink="http://www.w3.org/1999/xlink">
    <!-- Generator: Sketch 49.3 (51167) - http://www.bohemiancoding.com/sketch -->
    <title>Group 20</title>
    <desc>Created with Sketch.</desc>
    <defs></defs>
    <g id="Creator-Profile" stroke="none" stroke-width="1" fill="none" fill-rule="evenodd">
        <g id="Profile-Before-Setup-Copy-3" transform="translate(-964.000000, -526.000000)" fill="#3E3E3E">
            <g id="Group-21" transform="translate(964.000000, 277.000000)">
                <g id="Group-6" transform="translate(0.000000, 249.000000)">
                    <g id="Group-20">
                        <path d="M29.6189375,17.1844574 C29.627,17.3709682 29.632375,17.557479 29.632375,17.7466354 C29.632375,23.4834961 25.1953125,30.1 17.08175,30.1 C14.5904375,30.1 12.2724687,29.381735 10.32,28.1502346 C10.6653437,28.1899177 11.0160625,28.2097593 11.3721562,28.2097593 C13.4388437,28.2097593 15.34025,27.5166269 16.850625,26.3512651 C14.9196562,26.316873 13.2910312,25.0615627 12.7293437,23.3366685 C12.9994375,23.3869338 13.2749062,23.4133892 13.5597812,23.4133892 C13.9615625,23.4133892 14.35125,23.3604784 14.722125,23.2612705 C12.7038125,22.8631162 11.1840312,21.1077982 11.1840312,19.0045912 L11.1840312,18.9490348 C11.7779687,19.2744367 12.45925,19.4702069 13.1821875,19.492694 C11.9983437,18.7135815 11.2189687,17.384196 11.2189687,15.8788818 C11.2189687,15.0825733 11.4366562,14.33653 11.8169375,13.6949858 C13.9924687,16.3220103 17.243,18.0508729 20.90875,18.2320926 C20.8335,17.9146274 20.7945312,17.5826117 20.7945312,17.2426594 C20.7945312,14.8444744 22.7698437,12.9 25.2047187,12.9 C26.4745625,12.9 27.6207812,13.4277859 28.4243437,14.2717142 C29.4294687,14.0772668 30.374125,13.7161501 31.2260625,13.218788 C30.8968437,14.2320311 30.19675,15.0825733 29.2870312,15.6209413 C30.1792812,15.5151196 31.0285312,15.2823118 31.82,14.9370684 C31.22875,15.8074521 30.4802812,16.5720142 29.6189375,17.1844574 M21.5,0 C9.62528125,0 0,9.62528125 0,21.5 C0,33.373375 9.62528125,43 21.5,43 C33.3747187,43 43,33.373375 43,21.5 C43,9.62528125 33.3747187,0 21.5,0" id="Fill-184-Copy-3"></path>
                    </g>
                </g>
            </g>
        </g>
    </g>
</svg>