<?xml version="1.0" encoding="UTF-8"?>
<svg width="43px" height="43px" viewBox="0 0 43 43" version="1.1" xmlns="http://www.w3.org/2000/svg" xmlns:xlink="http://www.w3.org/1999/xlink">
    <!-- Generator: Sketch 49.3 (51167) - http://www.bohemiancoding.com/sketch -->
    <title>Group 7</title>
    <desc>Created with Sketch.</desc>
    <defs></defs>
    <g id="Creator-Profile" stroke="none" stroke-width="1" fill="none" fill-rule="evenodd">
        <g id="Profile-Before-Setup-Copy-3" transform="translate(-964.000000, -277.000000)" fill="#444444">
            <g id="Group-21" transform="translate(964.000000, 277.000000)">
                <g id="Group-5">
                    <g id="Group-7">
                        <path d="M32.25,22.311625 C32.25,24.0517812 32.035,25.7919375 32.035,25.7919375 C32.035,25.7919375 31.825375,27.27275 31.180375,27.9258125 C30.363375,28.7817812 29.4469375,28.7858125 29.0263437,28.8355312 C26.0176875,29.0532187 21.5,29.0599375 21.5,29.0599375 C21.5,29.0599375 15.91,29.008875 14.19,28.8449375 C13.711625,28.7549062 12.636625,28.7817812 11.819625,27.9258125 C11.174625,27.27275 10.965,25.7919375 10.965,25.7919375 C10.965,25.7919375 10.75,24.0517812 10.75,22.311625 L10.75,20.6803125 C10.75,18.9401563 10.965,17.2013438 10.965,17.2013438 C10.965,17.2013438 11.174625,15.7191875 11.819625,15.066125 C12.636625,14.2101563 13.5530625,14.206125 13.9736562,14.1564063 C16.9823125,13.9387188 21.4959687,13.9387188 21.4959687,13.9387188 L21.5040312,13.9387188 C21.5040312,13.9387188 26.0176875,13.9387188 29.0263437,14.1564063 C29.4469375,14.206125 30.363375,14.2101563 31.180375,15.066125 C31.825375,15.7191875 32.035,17.2013438 32.035,17.2013438 C32.035,17.2013438 32.25,18.9401563 32.25,20.6803125 L32.25,22.311625 Z M21.5,0 C9.62528125,0 0,9.62528125 0,21.5 C0,33.373375 9.62528125,43 21.5,43 C33.3747188,43 43,33.373375 43,21.5 C43,9.62528125 33.3747188,0 21.5,0 L21.5,0 Z" id="Fill-207"></path>
                        <polygon id="Fill-208" points="17.2021878 25.8 26.66 21.0868327 17.2 16.34"></polygon>
                    </g>
                </g>
            </g>
        </g>
    </g>
</svg>