<?xml version="1.0" encoding="UTF-8"?>
<svg width="43px" height="43px" viewBox="0 0 43 43" version="1.1" xmlns="http://www.w3.org/2000/svg" xmlns:xlink="http://www.w3.org/1999/xlink">
    <!-- Generator: Sketch 49.3 (51167) - http://www.bohemiancoding.com/sketch -->
    <title>Group 18</title>
    <desc>Created with Sketch.</desc>
    <defs></defs>
    <g id="Creator-Profile" stroke="none" stroke-width="1" fill="none" fill-rule="evenodd">
        <g id="Profile-Before-Setup-Copy-3" transform="translate(-964.000000, -357.000000)" fill="#444444">
            <g id="Group-21" transform="translate(964.000000, 277.000000)">
                <g id="Group-3-Copy" transform="translate(0.000000, 80.000000)">
                    <g id="Group-13">
                        <g id="Group-18">
                            <path d="M25.8,21.4992996 C25.8,19.1248086 23.8742931,17.2 21.5,17.2 C19.1257069,17.2 17.2,19.1248086 17.2,21.4992996 C17.2,23.8751914 19.1257069,25.8 21.5,25.8 C23.8742931,25.8 25.8,23.8751914 25.8,21.4992996 Z" id="Fill-202"></path>
                            <path d="M26.3037986,15.48 L28.7362014,15.48 C29.0139653,15.48 29.24,15.2545002 29.24,14.9771354 L29.24,12.5428646 C29.24,12.2654998 29.0139653,12.04 28.7362014,12.04 L26.3037986,12.04 C26.0260347,12.04 25.8,12.2654998 25.8,12.5428646 L25.8,14.9771354 C25.8,15.2545002 26.0260347,15.48 26.3037986,15.48" id="Fill-203"></path>
                            <path d="M32.25,29.6995625 C32.25,31.1078125 31.1064687,32.25 29.6941875,32.25 L13.3058125,32.25 C11.894875,32.25 10.75,31.1078125 10.75,29.6995625 L10.75,13.2990937 C10.75,11.8908438 11.894875,10.75 13.3058125,10.75 L29.6941875,10.75 C31.1064687,10.75 32.25,11.8908438 32.25,13.2990937 L32.25,29.6995625 Z M21.5,0 C9.62528125,0 0,9.62528125 0,21.5 C0,33.373375 9.62528125,43 21.5,43 C33.3747187,43 43,33.373375 43,21.5 C43,9.62528125 33.3747187,0 21.5,0 L21.5,0 Z" id="Fill-204"></path>
                            <path d="M26.6327734,21.5694504 C26.6327734,25.3002593 23.7519609,28.337029 20.21,28.337029 C16.6680391,28.337029 13.7872266,25.3002593 13.7872266,21.5694504 C13.7872266,20.9506685 13.8664061,20.3500041 14.0155274,19.78 L12.04,19.78 L12.04,29.4770371 C12.04,29.8212694 12.3039315,30.1 12.6298869,30.1 L27.7887934,30.1 C28.1160685,30.1 28.38,29.8212694 28.38,29.4770371 L28.38,19.78 L26.4044726,19.78 C26.5535939,20.3500041 26.6327734,20.9506685 26.6327734,21.5694504" id="Fill-205"></path>
                        </g>
                    </g>
                </g>
            </g>
        </g>
    </g>
</svg>