<svg version="1.1" xmlns="http://www.w3.org/2000/svg" xmlns:xlink="http://www.w3.org/1999/xlink" x="0px" y="0px" viewBox="0 0 48 48" xml:space="preserve" width="48" height="48"><title>undo 29</title><g class="nc-icon-wrapper" fill="#ff4b00"><path data-color="color-2" d="M38.85,39.849c-0.256,0-0.512-0.098-0.707-0.293c-0.391-0.39-0.391-1.023,0-1.414 c1.863-1.863,3.321-4.047,4.334-6.489c0.213-0.511,0.799-0.751,1.307-0.541c0.511,0.212,0.753,0.797,0.541,1.307 c-1.114,2.686-2.718,5.087-4.768,7.137C39.361,39.751,39.105,39.849,38.85,39.849z"/> <path data-color="color-2" d="M15.964,44.401c-0.128,0-0.258-0.025-0.383-0.077c-2.687-1.114-5.088-2.718-7.138-4.768 c-0.391-0.39-0.391-1.023,0-1.414s1.023-0.391,1.414,0c1.864,1.863,4.047,3.322,6.489,4.334c0.511,0.212,0.753,0.797,0.541,1.307 C16.728,44.168,16.355,44.401,15.964,44.401z"/> <path data-color="color-2" d="M4.6,33.037c-0.392,0-0.765-0.232-0.924-0.618C2.563,29.736,2,26.903,2,24 c0-0.552,0.447-1,1-1s1,0.448,1,1c0,2.639,0.513,5.214,1.523,7.653c0.212,0.51-0.031,1.095-0.541,1.307 C4.857,33.012,4.728,33.037,4.6,33.037z"/> <path data-color="color-2" d="M24,46c-0.553,0-1-0.448-1-1s0.447-1,1-1c2.641,0,5.215-0.513,7.653-1.523 c0.509-0.21,1.095,0.03,1.307,0.541c0.212,0.51-0.03,1.095-0.541,1.307C29.737,45.436,26.904,46,24,46z"/> <path fill="#ff4b00" d="M24,2c-4.922,0-9.637,1.653-13.443,4.59L5.885,2.238c-0.244-0.228-0.596-0.3-0.908-0.181 c-0.313,0.116-0.533,0.4-0.568,0.731L3.005,15.923c-0.029,0.276,0.072,0.55,0.275,0.738c0.211,0.197,0.496,0.271,0.756,0.223 l13.003-2.331c0.328-0.058,0.595-0.298,0.689-0.618c0.095-0.32,0-0.666-0.244-0.893l-5.437-5.064C15.46,5.433,19.639,4,24,4 c11.028,0,20,8.972,20,20c0,0.552,0.447,1,1,1s1-0.448,1-1C46,11.869,36.131,2,24,2z"/></g></svg>